<svg id="Layer_1" data-name="Layer 1" xmlns="http://www.w3.org/2000/svg" viewBox="0 0 512 512"><defs><style>.cls-1{fill:#fff;}</style></defs><circle class="cls-1" cx="252.5" cy="254.5" r="203"/><path d="M195.79,291.9H309.2v12.59H195.79Zm0-27.95H309.2v12.59H195.79Zm0,55.9H309.2v12.59H195.79Zm0-83.85H309.2v12.59H195.79Z"/><path d="M252.5,72.32c-100.62,0-182.18,81.57-182.18,182.19S151.88,436.68,252.5,436.68s182.18-81.57,182.18-182.17S353.1,72.32,252.5,72.32Zm81.62,263.8A22.13,22.13,0,0,1,312,358.26H193a22.12,22.12,0,0,1-22.14-22.13h0V172.88A22.11,22.11,0,0,1,193,150.74h93.4V195h47.73ZM295.85,185.55V150.74l38.27,34.82H295.85Z"/><path d="M195.79,208H309.2v12.6H195.79Z"/></svg>