<svg xmlns="http://www.w3.org/2000/svg" viewBox="0 0 512 512"><g data-name="Document 02"><path d="M199.293 293.397h113.405v12.595H199.293zM199.293 265.449h113.405v12.595H199.293zM199.293 321.347h113.405v12.595H199.293zM199.293 237.499h113.405v12.595H199.293z"/><path d="M256 73.82c-100.617 0-182.18 81.571-182.18 182.189 0 100.6 81.563 182.17 182.18 182.17 100.6 0 182.18-81.57 182.18-182.17C438.18 155.39 356.6 73.82 256 73.82zm81.624 263.804a22.14 22.14 0 0 1-22.131 22.14H196.506a22.135 22.135 0 0 1-22.139-22.14V174.376a22.13 22.13 0 0 1 22.14-22.14h93.383v44.27h47.733zM299.348 187.05v-34.813l38.276 34.822h-38.276z"/><path d="M199.293 209.541h113.405v12.595H199.293z"/></g></svg>